Coordinates
version=1
nRows=30
nColumns=33
inDegrees=yes

Units are S.I. units (second, meters, Newtons, ...)
Angles are in degrees.

endheader
time	ground_thorax_rot_x	ground_thorax_rot_y	ground_thorax_rot_z	ground_thorax_tx	ground_thorax_ty	ground_thorax_tz	clav_prot_r	clav_elev_r	scapula_abduction_r	scapula_elevation_r	scapula_upward_rot_r	scapula_winging_r	shoulder_elv_r	plane_of_elev_r	axial_rot_r	elbow_flexion_r	pro_sup_r	wrist_flex_r	wrist_dev_r	clav_prot_l	clav_elev_l	scapula_abduction_l	scapula_elevation_l	scapula_upward_rot_l	scapula_winging_l	shoulder_elv_l	plane_of_elev_l	axial_rot_l	elbow_flexion_l	pro_sup_l	wrist_flex_l	wrist_dev_l	
2.2800	25.224486	37.750926	51.156380	84.425551	783.367118	-47.008391	13.070104	36.727213	29.435912	45.000000	-45.000000	-5120.293193	-1730.371381	20.856926	-161.663193	1801.205892	-191.772616	11.234577	12.265632	-14.796421	-45.000000	-33.125860	45.000000	-45.000000	-3862.862438	-1895.112057	135.933826	-128.913132	349.238546	-314.763194	12.125582	-14.631452	
2.2900	25.121076	37.640247	51.217418	85.093298	783.058809	-46.937830	13.141926	36.673745	29.406394	45.000000	-45.000000	-5120.245636	-1730.290275	20.817028	-161.619508	1801.257946	-191.683285	11.341942	12.242108	-14.813258	-45.000000	-33.110048	45.000000	-45.000000	-3862.903831	-1895.104521	136.055095	-129.369997	349.406365	-314.519493	11.902767	-14.644371	
2.3000	25.026951	37.521934	51.263915	85.685820	782.779634	-46.859144	13.230255	36.610675	29.391144	45.000000	-45.000000	-5120.205564	-1730.218839	20.777384	-161.584003	1801.310323	-191.609716	11.413144	12.239423	-14.826806	-45.000000	-33.084606	45.000000	-45.000000	-3862.926129	-1895.072173	136.146379	-129.806771	349.575083	-314.261759	11.752421	-14.672220	
2.3100	24.969188	37.395828	51.263646	86.113525	782.566954	-46.764309	13.276810	36.586272	29.401293	45.000000	-45.000000	-5120.208710	-1730.156537	20.756981	-161.496677	1801.364609	-191.596091	11.492369	12.215870	-14.829920	-45.000000	-33.094384	45.000000	-45.000000	-3862.932185	-1895.038897	136.201268	-130.137005	349.722840	-314.006857	11.562301	-14.725538	
2.3200	24.936415	37.263067	51.232613	86.367169	782.421122	-46.651058	13.304433	36.584452	29.432537	45.000000	-45.000000	-5120.245519	-1730.100483	20.745907	-161.379843	1801.413347	-191.625769	11.562827	12.189208	-14.825566	-45.000000	-33.119915	45.000000	-45.000000	-3862.927352	-1894.986715	136.228426	-130.389467	349.853827	-313.737339	11.370120	-14.796673	
2.3300	24.937344	37.123452	51.160664	86.425665	782.346988	-46.516475	13.317209	36.596666	29.485909	45.000000	-45.000000	-5120.313410	-1730.045709	20.739792	-161.233135	1801.455604	-191.691671	11.634112	12.151127	-14.811454	-45.000000	-33.171979	45.000000	-45.000000	-3862.910173	-1894.929507	136.232453	-130.574142	349.975191	-313.444792	11.172396	-14.884660	
2.3400	24.957400	36.979080	51.067960	86.289351	782.338951	-46.359602	13.322727	36.619783	29.552178	45.000000	-45.000000	-5120.406626	-1729.989944	20.735123	-161.064247	1801.483934	-191.772886	11.697343	12.113877	-14.792924	-45.000000	-33.237107	45.000000	-45.000000	-3862.889636	-1894.852580	136.227890	-130.708554	350.086739	-313.114419	10.978592	-14.980945	
2.3500	25.000612	36.830328	50.946371	85.967807	782.386539	-46.181079	13.329017	36.640330	29.625776	45.000000	-45.000000	-5120.512652	-1729.930163	20.725334	-160.877051	1801.501602	-191.848329	11.764412	12.070584	-14.766953	-45.000000	-33.318772	45.000000	-45.000000	-3862.867029	-1894.773637	136.221046	-130.818874	350.201541	-312.739239	10.786117	-15.082475	
2.3600	25.054938	36.677304	50.815113	85.469795	782.478887	-45.982130	13.332172	36.665816	29.699800	45.000000	-45.000000	-5120.631300	-1729.865422	20.717827	-160.667708	1801.508251	-191.898413	11.818014	12.036079	-14.738624	-45.000000	-33.401419	45.000000	-45.000000	-3862.842029	-1894.677443	136.214142	-130.903789	350.311424	-312.316355	10.610560	-15.188009	
2.3700	25.127470	36.519555	50.660118	84.803188	782.604900	-45.764853	13.331575	36.690603	29.773063	45.000000	-45.000000	-5120.754207	-1729.794362	20.706995	-160.431863	1801.510924	-191.911452	11.873824	11.998046	-14.704205	-45.000000	-33.494025	45.000000	-45.000000	-3862.815417	-1894.584577	136.207175	-130.971230	350.426588	-311.850259	10.444136	-15.297722	
2.3800	25.207736	36.354168	50.494667	83.975288	782.753448	-45.531906	13.325436	36.723649	29.840178	45.000000	-45.000000	-5120.879640	-1729.718446	20.701044	-160.169576	1801.508835	-191.874994	11.915423	11.970286	-14.670132	-45.000000	-33.586514	45.000000	-45.000000	-3862.787844	-1894.482168	136.200633	-131.018927	350.538435	-311.347493	10.302673	-15.409082	
2.3900	25.297013	36.186054	50.316066	82.992973	782.913951	-45.286623	13.316835	36.754290	29.897643	45.000000	-45.000000	-5121.005688	-1729.635209	20.693431	-159.888270	1801.506293	-191.784959	11.965180	11.937456	-14.630943	-45.000000	-33.683401	45.000000	-45.000000	-3862.762238	-1894.388155	136.196711	-131.058283	350.651286	-310.821984	10.165651	-15.517645	
2.4000	25.389973	36.012872	50.133119	81.863168	783.076855	-45.032664	13.305075	36.788768	29.943269	45.000000	-45.000000	-5121.130800	-1729.544328	20.693328	-159.591242	1801.507660	-191.634284	12.002197	11.913317	-14.591833	-45.000000	-33.778962	45.000000	-45.000000	-3862.732992	-1894.292341	136.191681	-131.091228	350.753616	-310.288875	10.057956	-15.623219	
2.4100	25.475219	35.846039	49.965615	80.592724	783.234229	-44.774025	13.301493	36.802883	29.975130	45.000000	-45.000000	-5121.264517	-1729.449274	20.694457	-159.303570	1801.514440	-191.428630	12.045564	11.884434	-14.546597	-45.000000	-33.868977	45.000000	-45.000000	-3862.693466	-1894.197608	136.187682	-131.132480	350.842809	-309.762946	9.963324	-15.719196	
2.4200	25.546323	35.684616	49.822717	79.188360	783.379969	-44.514755	13.303641	36.801848	29.995995	45.000000	-45.000000	-5121.406251	-1729.357000	20.697714	-159.027131	1801.525983	-191.167887	12.083673	11.858509	-14.496375	-45.000000	-33.950853	45.000000	-45.000000	-3862.640092	-1894.094284	136.187423	-131.182172	350.909690	-309.257091	9.896854	-15.805079	
2.4300	25.597635	35.532794	49.716134	77.656332	783.509786	-44.258710	13.318042	36.773529	30.002817	45.000000	-45.000000	-5121.561360	-1729.267454	20.701495	-158.775178	1801.539785	-190.861879	12.126076	11.830974	-14.435764	-45.000000	-34.015859	45.000000	-45.000000	-3862.568461	-1893.980367	136.190377	-131.248372	350.954779	-308.783327	9.850158	-15.879717	
2.4400	25.637897	35.383526	49.626805	76.002369	783.620961	-44.009473	13.337726	36.732655	29.997072	45.000000	-45.000000	-5121.715866	-1729.181056	20.705329	-158.534291	1801.560324	-190.517742	12.165525	11.806808	-14.368399	-45.000000	-34.079236	45.000000	-45.000000	-3862.482336	-1893.864704	136.199926	-131.332714	350.981196	-308.353209	9.824512	-15.945044	
2.4500	25.665836	35.240034	49.555648	74.231379	783.712026	-43.770222	13.367055	36.674602	29.976537	45.000000	-45.000000	-5121.873907	-1729.094470	20.709305	-158.309590	1801.583141	-190.152956	12.206159	11.786462	-14.294122	-45.000000	-34.136869	45.000000	-45.000000	-3862.379841	-1893.747826	136.210505	-131.438021	350.996261	-307.976767	9.812952	-16.002560	
2.4600	25.696024	35.095398	49.475550	72.347727	783.782390	-43.543785	13.391159	36.621404	29.949106	45.000000	-45.000000	-5122.024520	-1729.009232	20.706528	-158.079847	1801.608051	-189.781677	12.247258	11.770946	-14.217673	-45.000000	-34.200553	45.000000	-45.000000	-3862.272490	-1893.639090	136.225066	-131.556160	351.005109	-307.662849	9.813654	-16.055271	
2.4700	25.734781	34.948522	49.378803	70.355412	783.832057	-43.332575	13.411778	36.573999	29.910921	45.000000	-45.000000	-5122.170544	-1728.918619	20.703191	-157.847896	1801.630221	-189.424440	12.289051	11.761576	-14.141614	-45.000000	-34.267006	45.000000	-45.000000	-3862.159291	-1893.540942	136.236942	-131.687901	351.013610	-307.419288	9.824125	-16.105739	
2.4800	25.787000	34.795916	49.255967	68.258591	783.861491	-43.138568	13.420821	36.541168	29.868244	45.000000	-45.000000	-5122.308209	-1728.828268	20.695448	-157.604844	1801.651476	-189.096045	12.330762	11.758031	-14.068628	-45.000000	-34.338739	45.000000	-45.000000	-3862.046528	-1893.453470	136.249140	-131.825545	351.020198	-307.250095	9.844393	-16.153999	
2.4900	25.847838	34.641663	49.118454	66.061531	783.871641	-42.963134	13.424737	36.512870	29.819484	45.000000	-45.000000	-5122.446936	-1728.737378	20.688590	-157.363228	1801.667944	-188.810666	12.373451	11.759517	-13.997426	-45.000000	-34.406794	45.000000	-45.000000	-3861.927931	-1893.370127	136.257895	-131.969014	351.021911	-307.155356	9.874753	-16.198956	
2.5000	25.913427	34.484932	48.973405	63.768602	783.864138	-42.806947	13.422634	36.488463	29.768429	45.000000	-45.000000	-5122.586088	-1728.650727	20.677217	-157.123592	1801.677878	-188.572524	12.418986	11.764613	-13.924975	-45.000000	-34.471715	45.000000	-45.000000	-3861.806213	-1893.287764	136.270859	-132.113946	351.015157	-307.130476	9.915584	-16.238761	
2.5100	25.984037	34.323901	48.819978	61.383894	783.841482	-42.669978	13.418577	36.464704	29.710060	45.000000	-45.000000	-5122.723097	-1728.564742	20.667748	-156.890039	1801.683769	-188.380833	12.465737	11.774622	-13.850194	-45.000000	-34.535217	45.000000	-45.000000	-3861.678720	-1893.207440	136.285385	-132.264201	351.002259	-307.169321	9.964897	-16.274124	
2.5200	26.054543	34.159907	48.664921	58.911184	783.807209	-42.551694	13.417673	36.434679	29.643981	45.000000	-45.000000	-5122.858258	-1728.482590	20.659489	-156.668233	1801.688616	-188.230420	12.512475	11.790951	-13.770856	-45.000000	-34.599360	45.000000	-45.000000	-3861.542895	-1893.128453	136.301848	-132.421374	350.983080	-307.263948	10.020499	-16.304237	
2.5300	26.125726	33.993850	48.504828	56.353490	783.765902	-42.451278	13.420091	36.399124	29.569276	45.000000	-45.000000	-5122.990493	-1728.402420	20.653077	-156.459143	1801.694119	-188.112826	12.558327	11.814287	-13.687021	-45.000000	-34.666338	45.000000	-45.000000	-3861.399855	-1893.052484	136.317245	-132.585406	350.960570	-307.405620	10.080347	-16.330340	
2.5400	26.198996	33.825158	48.339910	53.713188	783.723065	-42.367949	13.420938	36.361846	29.490847	45.000000	-45.000000	-5123.124079	-1728.326053	20.646656	-156.260253	1801.698017	-188.018560	12.604489	11.842773	-13.601521	-45.000000	-34.731690	45.000000	-45.000000	-3861.252819	-1892.975487	136.332962	-132.748506	350.934862	-307.584562	10.143989	-16.353083	
2.5500	26.275347	33.653796	48.168345	50.992166	783.684804	-42.301131	13.419114	36.323874	29.408952	45.000000	-45.000000	-5123.259072	-1728.253188	20.640860	-156.071271	1801.701198	-187.938670	12.650076	11.876166	-13.514363	-45.000000	-34.795335	45.000000	-45.000000	-3861.102692	-1892.898085	136.347770	-132.909310	350.907571	-307.790728	10.209994	-16.373757	
2.5600	26.355698	33.480588	47.990324	48.192236	783.657501	-42.250511	13.412361	36.286803	29.326136	45.000000	-45.000000	-5123.399199	-1728.183659	20.634742	-155.888047	1801.701706	-187.865138	12.695747	11.912545	-13.426441	-45.000000	-34.854562	45.000000	-45.000000	-3860.951852	-1892.817136	136.361952	-133.061836	350.878538	-308.014564	10.277591	-16.392811	
2.5700	26.439910	33.306687	47.806029	45.315732	783.647475	-42.215905	13.400139	36.250735	29.242052	45.000000	-45.000000	-5123.545181	-1728.116560	20.628187	-155.706981	1801.698567	-187.791586	12.741535	11.950401	-13.337698	-45.000000	-34.908937	45.000000	-45.000000	-3860.801483	-1892.732908	136.375395	-133.205921	350.847876	-308.247601	10.345742	-16.410681	
